<mxfile host="app.diagrams.net" modified="2023-10-13T02:26:01.559Z" agent="Mozilla/5.0 (Windows NT 10.0; Win64; x64) AppleWebKit/537.36 (KHTML, like Gecko) Chrome/117.0.0.0 Safari/537.36 Edg/117.0.2045.60" etag="OcN2SuvGVmiUYCAzF83D" version="22.0.4" type="device">
  <diagram name="Página-1" id="SiWSqa8Oypd3CGrOgs_E">
    <mxGraphModel dx="1042" dy="569" grid="1" gridSize="10" guides="1" tooltips="1" connect="1" arrows="1" fold="1" page="1" pageScale="1" pageWidth="827" pageHeight="1169" math="0" shadow="0">
      <root>
        <mxCell id="0" />
        <mxCell id="1" parent="0" />
        <mxCell id="pRf4TY1jdU9umVy4MBth-1" value="inicio" style="ellipse;whiteSpace=wrap;html=1;" vertex="1" parent="1">
          <mxGeometry x="354" y="70" width="120" height="80" as="geometry" />
        </mxCell>
        <mxCell id="pRf4TY1jdU9umVy4MBth-2" value="fim" style="ellipse;whiteSpace=wrap;html=1;" vertex="1" parent="1">
          <mxGeometry x="354" y="760" width="120" height="80" as="geometry" />
        </mxCell>
        <mxCell id="pRf4TY1jdU9umVy4MBth-3" value="digitar um numero de 1 a 10" style="rounded=0;whiteSpace=wrap;html=1;" vertex="1" parent="1">
          <mxGeometry x="354" y="166" width="120" height="60" as="geometry" />
        </mxCell>
        <mxCell id="pRf4TY1jdU9umVy4MBth-10" style="edgeStyle=orthogonalEdgeStyle;rounded=0;orthogonalLoop=1;jettySize=auto;html=1;exitX=1;exitY=0.5;exitDx=0;exitDy=0;entryX=1;entryY=0.5;entryDx=0;entryDy=0;" edge="1" parent="1" source="pRf4TY1jdU9umVy4MBth-4" target="pRf4TY1jdU9umVy4MBth-7">
          <mxGeometry relative="1" as="geometry" />
        </mxCell>
        <mxCell id="pRf4TY1jdU9umVy4MBth-12" style="edgeStyle=orthogonalEdgeStyle;rounded=0;orthogonalLoop=1;jettySize=auto;html=1;exitX=0.5;exitY=1;exitDx=0;exitDy=0;" edge="1" parent="1" source="pRf4TY1jdU9umVy4MBth-4" target="pRf4TY1jdU9umVy4MBth-5">
          <mxGeometry relative="1" as="geometry" />
        </mxCell>
        <mxCell id="pRf4TY1jdU9umVy4MBth-4" value="guardar o numero digitado em uma variavel" style="rounded=0;whiteSpace=wrap;html=1;" vertex="1" parent="1">
          <mxGeometry x="354" y="252" width="120" height="60" as="geometry" />
        </mxCell>
        <mxCell id="pRf4TY1jdU9umVy4MBth-11" style="edgeStyle=orthogonalEdgeStyle;rounded=0;orthogonalLoop=1;jettySize=auto;html=1;exitX=0.5;exitY=1;exitDx=0;exitDy=0;" edge="1" parent="1" source="pRf4TY1jdU9umVy4MBth-5" target="pRf4TY1jdU9umVy4MBth-6">
          <mxGeometry relative="1" as="geometry" />
        </mxCell>
        <mxCell id="pRf4TY1jdU9umVy4MBth-5" value="input digitar um nuemro de 1 a 10" style="rounded=0;whiteSpace=wrap;html=1;" vertex="1" parent="1">
          <mxGeometry x="354" y="337" width="120" height="60" as="geometry" />
        </mxCell>
        <mxCell id="pRf4TY1jdU9umVy4MBth-8" style="edgeStyle=orthogonalEdgeStyle;rounded=0;orthogonalLoop=1;jettySize=auto;html=1;exitX=0.5;exitY=1;exitDx=0;exitDy=0;entryX=0;entryY=0.5;entryDx=0;entryDy=0;" edge="1" parent="1" source="pRf4TY1jdU9umVy4MBth-6" target="pRf4TY1jdU9umVy4MBth-4">
          <mxGeometry relative="1" as="geometry" />
        </mxCell>
        <mxCell id="pRf4TY1jdU9umVy4MBth-14" style="edgeStyle=orthogonalEdgeStyle;rounded=0;orthogonalLoop=1;jettySize=auto;html=1;exitX=1;exitY=0.5;exitDx=0;exitDy=0;entryX=1;entryY=0.75;entryDx=0;entryDy=0;" edge="1" parent="1" source="pRf4TY1jdU9umVy4MBth-6" target="pRf4TY1jdU9umVy4MBth-13">
          <mxGeometry relative="1" as="geometry" />
        </mxCell>
        <mxCell id="pRf4TY1jdU9umVy4MBth-6" value="verificar se o numero digitado for igual numero digitado anteriormente" style="rhombus;whiteSpace=wrap;html=1;" vertex="1" parent="1">
          <mxGeometry x="341" y="410" width="146" height="150" as="geometry" />
        </mxCell>
        <mxCell id="pRf4TY1jdU9umVy4MBth-7" value="&quot;voce acertou&quot;" style="rounded=0;whiteSpace=wrap;html=1;" vertex="1" parent="1">
          <mxGeometry x="354" y="590" width="120" height="60" as="geometry" />
        </mxCell>
        <mxCell id="pRf4TY1jdU9umVy4MBth-9" value="sim" style="text;html=1;align=center;verticalAlign=middle;resizable=0;points=[];autosize=1;strokeColor=none;fillColor=none;" vertex="1" parent="1">
          <mxGeometry x="290" y="418" width="40" height="30" as="geometry" />
        </mxCell>
        <mxCell id="pRf4TY1jdU9umVy4MBth-16" style="edgeStyle=orthogonalEdgeStyle;rounded=0;orthogonalLoop=1;jettySize=auto;html=1;exitX=0.5;exitY=1;exitDx=0;exitDy=0;entryX=0.5;entryY=0;entryDx=0;entryDy=0;" edge="1" parent="1" source="pRf4TY1jdU9umVy4MBth-13" target="pRf4TY1jdU9umVy4MBth-2">
          <mxGeometry relative="1" as="geometry" />
        </mxCell>
        <mxCell id="pRf4TY1jdU9umVy4MBth-13" value="&quot;voce errou&quot;" style="rounded=0;whiteSpace=wrap;html=1;" vertex="1" parent="1">
          <mxGeometry x="354" y="680" width="120" height="60" as="geometry" />
        </mxCell>
        <mxCell id="pRf4TY1jdU9umVy4MBth-15" value="não" style="text;html=1;align=center;verticalAlign=middle;resizable=0;points=[];autosize=1;strokeColor=none;fillColor=none;" vertex="1" parent="1">
          <mxGeometry x="510" y="610" width="40" height="30" as="geometry" />
        </mxCell>
        <mxCell id="pRf4TY1jdU9umVy4MBth-17" style="edgeStyle=orthogonalEdgeStyle;rounded=0;orthogonalLoop=1;jettySize=auto;html=1;exitX=0;exitY=0.5;exitDx=0;exitDy=0;entryX=0.007;entryY=0.634;entryDx=0;entryDy=0;entryPerimeter=0;" edge="1" parent="1" source="pRf4TY1jdU9umVy4MBth-7" target="pRf4TY1jdU9umVy4MBth-2">
          <mxGeometry relative="1" as="geometry" />
        </mxCell>
      </root>
    </mxGraphModel>
  </diagram>
</mxfile>
